<svg xmlns="http://www.w3.org/2000/svg" width="1200" height="630" viewBox="0 0 1200 630" role="img">
  <defs><linearGradient id="bg" x1="0" y1="0" x2="1" y2="1">
    <stop offset="0" stop-color="#132f55"/><stop offset="1" stop-color="#0c1c33"/>
  </linearGradient></defs>
  <rect width="1200" height="630" fill="url(#bg)"/>
  <line x1="598" y1="96" x2="305" y2="200" stroke="#9cc4ec" stroke-width="1.5" opacity="0.25"/><line x1="598" y1="96" x2="766" y2="166" stroke="#9cc4ec" stroke-width="1.5" opacity="0.25"/><line x1="598" y1="96" x2="720" y2="190" stroke="#9cc4ec" stroke-width="1.5" opacity="0.25"/><line x1="598" y1="96" x2="721" y2="244" stroke="#9cc4ec" stroke-width="1.5" opacity="0.25"/><line x1="843" y1="512" x2="814" y2="519" stroke="#9cc4ec" stroke-width="1.5" opacity="0.25"/><line x1="843" y1="512" x2="505" y2="489" stroke="#9cc4ec" stroke-width="1.5" opacity="0.25"/><line x1="843" y1="512" x2="975" y2="247" stroke="#9cc4ec" stroke-width="1.5" opacity="0.25"/><line x1="843" y1="512" x2="721" y2="244" stroke="#9cc4ec" stroke-width="1.5" opacity="0.25"/><line x1="489" y1="546" x2="814" y2="519" stroke="#9cc4ec" stroke-width="1.5" opacity="0.25"/><line x1="489" y1="546" x2="505" y2="489" stroke="#9cc4ec" stroke-width="1.5" opacity="0.25"/><line x1="814" y1="519" x2="505" y2="489" stroke="#9cc4ec" stroke-width="1.5" opacity="0.25"/><line x1="814" y1="519" x2="975" y2="247" stroke="#9cc4ec" stroke-width="1.5" opacity="0.25"/><line x1="814" y1="519" x2="721" y2="244" stroke="#9cc4ec" stroke-width="1.5" opacity="0.25"/><line x1="505" y1="489" x2="721" y2="244" stroke="#9cc4ec" stroke-width="1.5" opacity="0.25"/><line x1="975" y1="247" x2="1140" y2="166" stroke="#9cc4ec" stroke-width="1.5" opacity="0.25"/><line x1="975" y1="247" x2="766" y2="166" stroke="#9cc4ec" stroke-width="1.5" opacity="0.25"/><line x1="975" y1="247" x2="720" y2="190" stroke="#9cc4ec" stroke-width="1.5" opacity="0.25"/><line x1="975" y1="247" x2="721" y2="244" stroke="#9cc4ec" stroke-width="1.5" opacity="0.25"/><line x1="766" y1="166" x2="720" y2="190" stroke="#9cc4ec" stroke-width="1.5" opacity="0.25"/><line x1="766" y1="166" x2="721" y2="244" stroke="#9cc4ec" stroke-width="1.5" opacity="0.25"/><line x1="720" y1="190" x2="721" y2="244" stroke="#9cc4ec" stroke-width="1.5" opacity="0.25"/><circle cx="598" cy="96" r="6.9" fill="#155eb8" opacity="0.85"/><circle cx="305" cy="200" r="5.3" fill="#3f8ad1" opacity="0.85"/><circle cx="843" cy="512" r="6.4" fill="#155eb8" opacity="0.85"/><circle cx="489" cy="546" r="8.6" fill="#9cc4ec" opacity="0.85"/><circle cx="814" cy="519" r="5.5" fill="#9cc4ec" opacity="0.85"/><circle cx="505" cy="489" r="7.7" fill="#9cc4ec" opacity="0.85"/><circle cx="975" cy="247" r="7.1" fill="#9cc4ec" opacity="0.85"/><circle cx="1140" cy="166" r="7.9" fill="#155eb8" opacity="0.85"/><circle cx="766" cy="166" r="4.8" fill="#9cc4ec" opacity="0.85"/><circle cx="720" cy="190" r="4.0" fill="#3f8ad1" opacity="0.85"/><circle cx="721" cy="244" r="4.1" fill="#9cc4ec" opacity="0.85"/>
  <rect y="624" width="1200" height="6" fill="#155eb8"/>
</svg>
