<svg xmlns="http://www.w3.org/2000/svg" width="1200" height="630" viewBox="0 0 1200 630" role="img">
  <defs><linearGradient id="bg" x1="0" y1="0" x2="1" y2="1">
    <stop offset="0" stop-color="#11294a"/><stop offset="1" stop-color="#0c1c33"/>
  </linearGradient></defs>
  <rect width="1200" height="630" fill="url(#bg)"/>
  <circle cx="60" cy="50" r="2.2" fill="#9cc4ec" opacity="0.35"/><circle cx="60" cy="146" r="2.2" fill="#9cc4ec" opacity="0.35"/><circle cx="60" cy="242" r="2.2" fill="#9cc4ec" opacity="0.35"/><circle cx="60" cy="338" r="2.2" fill="#9cc4ec" opacity="0.35"/><circle cx="60" cy="434" r="2.2" fill="#9cc4ec" opacity="0.35"/><circle cx="60" cy="530" r="2.2" fill="#9cc4ec" opacity="0.35"/><circle cx="60" cy="626" r="2.2" fill="#9cc4ec" opacity="0.35"/><circle cx="156" cy="50" r="2.2" fill="#9cc4ec" opacity="0.35"/><circle cx="156" cy="146" r="2.2" fill="#9cc4ec" opacity="0.35"/><circle cx="156" cy="242" r="2.2" fill="#9cc4ec" opacity="0.35"/><circle cx="156" cy="338" r="2.2" fill="#9cc4ec" opacity="0.35"/><circle cx="156" cy="434" r="2.2" fill="#9cc4ec" opacity="0.35"/><circle cx="156" cy="530" r="2.2" fill="#9cc4ec" opacity="0.35"/><circle cx="156" cy="626" r="2.2" fill="#9cc4ec" opacity="0.35"/><circle cx="252" cy="50" r="2.2" fill="#9cc4ec" opacity="0.35"/><circle cx="252" cy="146" r="2.2" fill="#9cc4ec" opacity="0.35"/><circle cx="252" cy="242" r="2.2" fill="#9cc4ec" opacity="0.35"/><circle cx="252" cy="338" r="2.2" fill="#9cc4ec" opacity="0.35"/><circle cx="252" cy="434" r="2.2" fill="#9cc4ec" opacity="0.35"/><circle cx="252" cy="530" r="2.2" fill="#9cc4ec" opacity="0.35"/><circle cx="252" cy="626" r="2.2" fill="#9cc4ec" opacity="0.35"/><circle cx="348" cy="50" r="5.2" fill="#155eb8" opacity="0.9"/><circle cx="348" cy="146" r="2.2" fill="#9cc4ec" opacity="0.35"/><circle cx="348" cy="242" r="2.2" fill="#9cc4ec" opacity="0.35"/><circle cx="348" cy="338" r="2.2" fill="#9cc4ec" opacity="0.35"/><circle cx="348" cy="434" r="2.2" fill="#9cc4ec" opacity="0.35"/><circle cx="348" cy="530" r="2.2" fill="#9cc4ec" opacity="0.35"/><circle cx="348" cy="626" r="2.2" fill="#9cc4ec" opacity="0.35"/><circle cx="444" cy="50" r="2.2" fill="#9cc4ec" opacity="0.35"/><circle cx="444" cy="146" r="2.2" fill="#9cc4ec" opacity="0.35"/><circle cx="444" cy="242" r="2.2" fill="#9cc4ec" opacity="0.35"/><circle cx="444" cy="338" r="2.2" fill="#9cc4ec" opacity="0.35"/><circle cx="444" cy="434" r="2.2" fill="#9cc4ec" opacity="0.35"/><circle cx="444" cy="530" r="2.2" fill="#9cc4ec" opacity="0.35"/><circle cx="444" cy="626" r="2.2" fill="#9cc4ec" opacity="0.35"/><circle cx="540" cy="50" r="7.2" fill="#155eb8" opacity="0.9"/><circle cx="540" cy="146" r="2.2" fill="#9cc4ec" opacity="0.35"/><circle cx="540" cy="242" r="2.2" fill="#9cc4ec" opacity="0.35"/><circle cx="540" cy="338" r="7.2" fill="#155eb8" opacity="0.9"/><circle cx="540" cy="434" r="5.1" fill="#155eb8" opacity="0.9"/><circle cx="540" cy="530" r="2.2" fill="#9cc4ec" opacity="0.35"/><circle cx="540" cy="626" r="2.2" fill="#9cc4ec" opacity="0.35"/><circle cx="636" cy="50" r="2.2" fill="#9cc4ec" opacity="0.35"/><circle cx="636" cy="146" r="2.2" fill="#9cc4ec" opacity="0.35"/><circle cx="636" cy="242" r="2.2" fill="#9cc4ec" opacity="0.35"/><circle cx="636" cy="338" r="8.3" fill="#155eb8" opacity="0.9"/><circle cx="636" cy="434" r="2.2" fill="#9cc4ec" opacity="0.35"/><circle cx="636" cy="530" r="2.2" fill="#9cc4ec" opacity="0.35"/><circle cx="636" cy="626" r="2.2" fill="#9cc4ec" opacity="0.35"/><circle cx="732" cy="50" r="2.2" fill="#9cc4ec" opacity="0.35"/><circle cx="732" cy="146" r="2.2" fill="#9cc4ec" opacity="0.35"/><circle cx="732" cy="242" r="2.2" fill="#9cc4ec" opacity="0.35"/><circle cx="732" cy="338" r="2.2" fill="#9cc4ec" opacity="0.35"/><circle cx="732" cy="434" r="2.2" fill="#9cc4ec" opacity="0.35"/><circle cx="732" cy="530" r="2.2" fill="#9cc4ec" opacity="0.35"/><circle cx="732" cy="626" r="2.2" fill="#9cc4ec" opacity="0.35"/><circle cx="828" cy="50" r="2.2" fill="#9cc4ec" opacity="0.35"/><circle cx="828" cy="146" r="2.2" fill="#9cc4ec" opacity="0.35"/><circle cx="828" cy="242" r="2.2" fill="#9cc4ec" opacity="0.35"/><circle cx="828" cy="338" r="2.2" fill="#9cc4ec" opacity="0.35"/><circle cx="828" cy="434" r="2.2" fill="#9cc4ec" opacity="0.35"/><circle cx="828" cy="530" r="2.2" fill="#9cc4ec" opacity="0.35"/><circle cx="828" cy="626" r="2.2" fill="#9cc4ec" opacity="0.35"/><circle cx="924" cy="50" r="2.2" fill="#9cc4ec" opacity="0.35"/><circle cx="924" cy="146" r="2.2" fill="#9cc4ec" opacity="0.35"/><circle cx="924" cy="242" r="2.2" fill="#9cc4ec" opacity="0.35"/><circle cx="924" cy="338" r="2.2" fill="#9cc4ec" opacity="0.35"/><circle cx="924" cy="434" r="2.2" fill="#9cc4ec" opacity="0.35"/><circle cx="924" cy="530" r="6.0" fill="#155eb8" opacity="0.9"/><circle cx="924" cy="626" r="2.2" fill="#9cc4ec" opacity="0.35"/><circle cx="1020" cy="50" r="2.2" fill="#9cc4ec" opacity="0.35"/><circle cx="1020" cy="146" r="2.2" fill="#9cc4ec" opacity="0.35"/><circle cx="1020" cy="242" r="2.2" fill="#9cc4ec" opacity="0.35"/><circle cx="1020" cy="338" r="2.2" fill="#9cc4ec" opacity="0.35"/><circle cx="1020" cy="434" r="2.2" fill="#9cc4ec" opacity="0.35"/><circle cx="1020" cy="530" r="2.2" fill="#9cc4ec" opacity="0.35"/><circle cx="1020" cy="626" r="2.2" fill="#9cc4ec" opacity="0.35"/><circle cx="1116" cy="50" r="2.2" fill="#9cc4ec" opacity="0.35"/><circle cx="1116" cy="146" r="2.2" fill="#9cc4ec" opacity="0.35"/><circle cx="1116" cy="242" r="2.2" fill="#9cc4ec" opacity="0.35"/><circle cx="1116" cy="338" r="2.2" fill="#9cc4ec" opacity="0.35"/><circle cx="1116" cy="434" r="2.2" fill="#9cc4ec" opacity="0.35"/><circle cx="1116" cy="530" r="2.2" fill="#9cc4ec" opacity="0.35"/><circle cx="1116" cy="626" r="2.2" fill="#9cc4ec" opacity="0.35"/>
  <rect y="624" width="1200" height="6" fill="#155eb8"/>
</svg>
