<svg xmlns="http://www.w3.org/2000/svg" width="1200" height="630" viewBox="0 0 1200 630" role="img">
  <defs><linearGradient id="bg" x1="0" y1="0" x2="1" y2="1">
    <stop offset="0" stop-color="#132f55"/><stop offset="1" stop-color="#0c1c33"/>
  </linearGradient></defs>
  <rect width="1200" height="630" fill="url(#bg)"/>
  <line x1="1069" y1="561" x2="904" y2="344" stroke="#9cc4ec" stroke-width="1.5" opacity="0.25"/><line x1="335" y1="411" x2="254" y2="456" stroke="#9cc4ec" stroke-width="1.5" opacity="0.25"/><line x1="335" y1="411" x2="306" y2="387" stroke="#9cc4ec" stroke-width="1.5" opacity="0.25"/><line x1="335" y1="411" x2="511" y2="527" stroke="#9cc4ec" stroke-width="1.5" opacity="0.25"/><line x1="335" y1="411" x2="295" y2="251" stroke="#9cc4ec" stroke-width="1.5" opacity="0.25"/><line x1="335" y1="411" x2="486" y2="315" stroke="#9cc4ec" stroke-width="1.5" opacity="0.25"/><line x1="335" y1="411" x2="71" y2="376" stroke="#9cc4ec" stroke-width="1.5" opacity="0.25"/><line x1="254" y1="456" x2="306" y2="387" stroke="#9cc4ec" stroke-width="1.5" opacity="0.25"/><line x1="254" y1="456" x2="511" y2="527" stroke="#9cc4ec" stroke-width="1.5" opacity="0.25"/><line x1="254" y1="456" x2="295" y2="251" stroke="#9cc4ec" stroke-width="1.5" opacity="0.25"/><line x1="254" y1="456" x2="486" y2="315" stroke="#9cc4ec" stroke-width="1.5" opacity="0.25"/><line x1="254" y1="456" x2="71" y2="376" stroke="#9cc4ec" stroke-width="1.5" opacity="0.25"/><line x1="306" y1="387" x2="511" y2="527" stroke="#9cc4ec" stroke-width="1.5" opacity="0.25"/><line x1="306" y1="387" x2="295" y2="251" stroke="#9cc4ec" stroke-width="1.5" opacity="0.25"/><line x1="306" y1="387" x2="486" y2="315" stroke="#9cc4ec" stroke-width="1.5" opacity="0.25"/><line x1="306" y1="387" x2="71" y2="376" stroke="#9cc4ec" stroke-width="1.5" opacity="0.25"/><line x1="511" y1="527" x2="713" y2="377" stroke="#9cc4ec" stroke-width="1.5" opacity="0.25"/><line x1="511" y1="527" x2="486" y2="315" stroke="#9cc4ec" stroke-width="1.5" opacity="0.25"/><line x1="1002" y1="156" x2="904" y2="344" stroke="#9cc4ec" stroke-width="1.5" opacity="0.25"/><line x1="295" y1="251" x2="486" y2="315" stroke="#9cc4ec" stroke-width="1.5" opacity="0.25"/><line x1="295" y1="251" x2="71" y2="376" stroke="#9cc4ec" stroke-width="1.5" opacity="0.25"/><line x1="713" y1="377" x2="486" y2="315" stroke="#9cc4ec" stroke-width="1.5" opacity="0.25"/><line x1="713" y1="377" x2="904" y2="344" stroke="#9cc4ec" stroke-width="1.5" opacity="0.25"/><circle cx="1069" cy="561" r="8.5" fill="#9cc4ec" opacity="0.85"/><circle cx="335" cy="411" r="4.3" fill="#155eb8" opacity="0.85"/><circle cx="254" cy="456" r="6.2" fill="#155eb8" opacity="0.85"/><circle cx="306" cy="387" r="8.1" fill="#3f8ad1" opacity="0.85"/><circle cx="511" cy="527" r="6.4" fill="#3f8ad1" opacity="0.85"/><circle cx="1002" cy="156" r="4.2" fill="#9cc4ec" opacity="0.85"/><circle cx="295" cy="251" r="7.0" fill="#3f8ad1" opacity="0.85"/><circle cx="713" cy="377" r="6.4" fill="#155eb8" opacity="0.85"/><circle cx="486" cy="315" r="4.7" fill="#9cc4ec" opacity="0.85"/><circle cx="71" cy="376" r="8.2" fill="#9cc4ec" opacity="0.85"/><circle cx="904" cy="344" r="6.2" fill="#155eb8" opacity="0.85"/>
  <rect y="624" width="1200" height="6" fill="#155eb8"/>
</svg>
